<?xml version="1.0" encoding="utf-8"?>
<!-- Generator: Adobe Illustrator 16.0.0, SVG Export Plug-In . SVG Version: 6.00 Build 0)  -->
<!DOCTYPE svg PUBLIC "-//W3C//DTD SVG 1.1//EN" "http://www.w3.org/Graphics/SVG/1.1/DTD/svg11.dtd">
<svg version="1.1" xmlns="http://www.w3.org/2000/svg" xmlns:xlink="http://www.w3.org/1999/xlink" x="0px" y="0px"
	 width="45.277px" height="44.943px" viewBox="0 0 45.277 44.943" enable-background="new 0 0 45.277 44.943" xml:space="preserve">
<g id="Capa_3">
	<ellipse fill="#9818B7" cx="22.639" cy="22.472" rx="22.639" ry="22.472"/>
</g>
<g id="Capa_2">
	<polygon fill="#FFFFFF" points="75.555,4.943 63.389,40.36 49.889,24.777 62.139,29.859 	"/>
	<g>
		<path fill="none" d="M27.048,15.434c-0.605-1.786-2.305-3.086-4.326-3.086c-2.021,0-3.721,1.3-4.326,3.086
			c1.342-0.517,2.799-0.811,4.326-0.811C24.249,14.624,25.706,14.917,27.048,15.434z"/>
		<path fill="#FFFFFF" d="M22.722,12.348c2.021,0,3.721,1.3,4.326,3.086c1.505,0.579,2.863,1.443,3.997,2.535
			c0.052-0.371,0.088-0.746,0.088-1.13c0-4.55-3.773-8.251-8.411-8.251c-4.638,0-8.412,3.702-8.412,8.251
			c0,0.384,0.036,0.759,0.088,1.13c1.134-1.092,2.492-1.956,3.997-2.535C19.001,13.648,20.701,12.348,22.722,12.348z"/>
		<path fill="#FFFFFF" d="M30.7,19.435c-0.944-1.055-2.101-1.919-3.406-2.532c-1.386-0.651-2.933-1.025-4.572-1.025
			c-1.64,0-3.186,0.375-4.572,1.025c-1.305,0.612-2.462,1.477-3.406,2.532c-1.641,1.833-2.643,4.23-2.643,6.862
			c0,5.754,4.755,10.419,10.622,10.419c5.866,0,10.621-4.665,10.621-10.419C33.343,23.665,32.341,21.268,30.7,19.435z
			 M25.149,30.631h-4.854l0.784-4.04c-0.583-0.455-0.964-1.142-0.999-1.923c-0.001-0.036-0.012-0.068-0.012-0.105
			c0-1.438,1.189-2.603,2.654-2.603c1.465,0,2.654,1.165,2.654,2.603c0,0.037-0.011,0.069-0.012,0.105
			c-0.034,0.781-0.415,1.468-0.999,1.923L25.149,30.631z"/>
	</g>
</g>
</svg>
