<?xml version="1.0" encoding="utf-8"?>
<!-- Generator: Adobe Illustrator 16.0.0, SVG Export Plug-In . SVG Version: 6.00 Build 0)  -->
<!DOCTYPE svg PUBLIC "-//W3C//DTD SVG 1.1//EN" "http://www.w3.org/Graphics/SVG/1.1/DTD/svg11.dtd">
<svg version="1.1" id="Capa_2" xmlns="http://www.w3.org/2000/svg" xmlns:xlink="http://www.w3.org/1999/xlink" x="0px" y="0px"
	 width="252.687px" height="253.242px" viewBox="0 0 252.687 253.242" enable-background="new 0 0 252.687 253.242"
	 xml:space="preserve">
<path fill="#3B5998" d="M36.668,0.256C36.668,0.256,0,0,0,36.339v179.902c0,0,0,37,36.349,37.711L138,253.354V153.242l-34.207-0.381
	l0.198-38.089L138,114.61V81.242c0,0-3.631-46.184,59.78-44.255L216,37.632v34.61l-17.953,0.09c0,0-21.825-1.122-20.211,18.076
	l-0.099,24.209l39.122-0.025L212,152.544l-34.046,0.229L177.8,253.242H218c0,0,34.691,0.711,34.687-36.222l0.004-180.55
	c0,0,0.1-36.56-35.959-36.47C175.519,0.103,36.668,0.256,36.668,0.256z"/>
</svg>
